<?xml version="1.0" standalone="no"?>
<!DOCTYPE svg PUBLIC "-//W3C//DTD SVG 20010904//EN"
 "http://www.w3.org/TR/2001/REC-SVG-20010904/DTD/svg10.dtd">
<svg version="1.0" xmlns="http://www.w3.org/2000/svg"
 width="360.000000pt" height="360.000000pt" viewBox="0 0 360.000000 360.000000"
 preserveAspectRatio="xMidYMid meet">

<g transform="translate(0.000000,360.000000) scale(0.100000,-0.100000)"
fill="#000000" stroke="none">
<path d="M1226 2498 c-34 -33 -89 -93 -266 -288 -52 -58 -118 -130 -146 -160
-104 -113 -94 -66 -94 -455 0 -341 0 -342 23 -362 28 -26 59 -35 91 -27 16 4
85 71 183 177 87 95 241 262 343 372 102 111 220 240 263 288 l79 86 -21 27
c-27 34 -209 233 -287 312 -53 54 -66 62 -97 62 -28 0 -45 -8 -71 -32z"/>
<path d="M2175 2338 c-98 -106 -199 -215 -224 -243 -26 -27 -223 -242 -439
-477 -381 -416 -392 -429 -392 -468 0 -51 31 -86 86 -96 21 -4 166 -4 323 -1
l286 5 50 54 c49 53 458 497 743 807 79 86 148 167 153 180 18 45 -1 77 -127
217 -181 201 -195 214 -243 214 -38 0 -44 -5 -216 -192z"/>
<path d="M2780 1793 c-23 -15 -162 -164 -447 -479 -100 -109 -113 -128 -113
-160 0 -26 8 -43 29 -65 l29 -29 290 0 290 0 31 26 31 26 0 320 0 320 -29 29
c-34 33 -72 37 -111 12z m-27 -423 c72 -79 -5 -194 -108 -160 -62 20 -85 102
-44 154 43 54 105 57 152 6z"/>
</g>
</svg>
